# xmcd
#
# Track frame offsets:
#  150
#  16349
#  30783
#  45333
#  66710
#  93822
#  113251
#  128564
#  143190
#  161230
#  176352
#
# Disc length: 2623 seconds
#
# Revision: 1
# Processed by: cddbd v1.5.1PL2 Copyright (c) Steve Scherf et al.
# Submitted via: Collectorz.com_Music_Collector 6.9
#
DISCID=7e0a3d0b
DTITLE=Our Lady of the Highway - About Leaving
DYEAR=2004
DGENRE=Country
TTITLE0=Elegant
TTITLE1=Stevenson Street
TTITLE2=Friday Night
TTITLE3=Stops
TTITLE4=Spiteful Song
TTITLE5=Beautiful
TTITLE6=Brown Dress
TTITLE7=Canyon Song
TTITLE8=The Deep End of Our Life
TTITLE9=Come Clean
TTITLE10=About Leaving
EXTD=
EXTT0=
EXTT1=
EXTT2=
EXTT3=
EXTT4=
EXTT5=
EXTT6=
EXTT7=
EXTT8=
EXTT9=
EXTT10=
PLAYORDER=
